Coordinates
version=1
nRows=10
nColumns=40
inDegrees=yes

Units are S.I. units (second, meters, Newtons, ...)
Angles are in degrees.

endheader
time	pelvis_tilt	pelvis_list	pelvis_rotation	pelvis_tx	pelvis_ty	pelvis_tz	hip_flexion_r	hip_adduction_r	hip_rotation_r	knee_angle_r	knee_angle_r_beta	ankle_angle_r	subtalar_angle_r	mtp_angle_r	hip_flexion_l	hip_adduction_l	hip_rotation_l	knee_angle_l	knee_angle_l_beta	ankle_angle_l	subtalar_angle_l	mtp_angle_l	lumbar_extension	lumbar_bending	lumbar_rotation	arm_flex_r	arm_add_r	arm_rot_r	elbow_flex_r	pro_sup_r	wrist_flex_r	wrist_dev_r	arm_flex_l	arm_add_l	arm_rot_l	elbow_flex_l	pro_sup_l	wrist_flex_l	wrist_dev_l
     46.67500000	     -3.12983510	     -5.12220247	      4.14120303	      0.79050403	      0.93261343	      0.52535307	      6.90057983	      4.86516057	    -19.44670955	     11.97247671	     11.97247671	     10.89137035	      5.33852439	     -6.51265937	     30.38022781	    -11.15320466	     -0.82256847	     30.32868110	     30.32868110	     10.47207894	    -15.25723505	     11.74796736	    -10.53049136	      9.11422472	      2.64262549	     25.26197570	    -16.37133043	     -5.93979682	     60.37250651	     45.20267615	      0.00000000	      0.00000000	    -11.72330376	     -9.95734793	     -1.43856274	     45.91489449	     46.06279588	      0.00000000	      0.00000000
     46.68885714	     -3.14699509	     -5.17051069	      4.29300997	      0.78970694	      0.93231238	      0.52555446	      6.42668854	      4.98568250	    -19.52478288	     11.84691409	     11.84691409	     11.15292020	      5.41450099	     -6.53681014	     30.29835212	    -10.92149236	     -0.93971692	     26.99717768	     26.99717768	     10.49415915	    -13.39746426	     11.79240117	    -10.50919441	      9.14881212	      2.47223700	     26.39076482	    -15.84747204	     -6.00904977	     61.64005160	     45.16996988	      0.00000000	      0.00000000	    -12.47422723	     -9.73381237	     -0.86012135	     45.24603612	     45.99465071	      0.00000000	      0.00000000
     46.70271429	     -3.12862441	     -5.28480841	      4.43573272	      0.78901668	      0.93199905	      0.52566585	      5.86554239	      5.16805184	    -19.78304778	     11.64245568	     11.64245568	     11.44285336	      5.84244989	     -6.48481520	     30.24889255	    -10.81172032	     -1.21005578	     24.02518233	     24.02518233	     10.45174785	    -11.20029915	     11.50907779	    -10.49488732	      9.28368263	      2.20635665	     27.49227412	    -15.21010519	     -5.96053684	     63.39535291	     45.11763134	      0.00000000	      0.00000000	    -13.11503727	     -9.52039065	      0.02706236	     44.08691186	     45.89434371	      0.00000000	      0.00000000
     46.71657143	     -3.21849184	     -5.33521590	      4.51162795	      0.78828861	      0.93162015	      0.52568652	      5.46163885	      5.25607129	    -19.94614042	     11.51973314	     11.51973314	     11.71243460	      6.15221690	     -6.43086327	     30.28259995	    -10.63675337	     -1.57027087	     21.29897675	     21.29897675	     10.28781449	     -9.18756297	     11.49150460	    -10.36222194	      9.30168806	      2.11388767	     28.44594699	    -14.70665300	     -5.85644610	     64.86214005	     45.07128557	      0.00000000	      0.00000000	    -13.70402253	     -9.27317040	      0.71519996	     43.15647516	     45.81380170	      0.00000000	      0.00000000
     46.73042857	     -3.23014350	     -5.51896668	      4.56140093	      0.78763322	      0.93125416	      0.52562600	      5.00705290	      5.44903522	    -20.30859639	     11.50560820	     11.50560820	     12.33549453	      6.94767519	     -5.41135862	     30.33941665	    -10.66362450	     -2.11114889	     19.01211128	     19.01211128	      9.58172700	     -7.22907654	      9.91602221	    -10.36071509	      9.53320021	      2.99006442	     28.32574832	    -14.99693364	     -6.42111418	     68.65667485	     45.02820793	      0.00000000	      0.00000000	    -13.31012246	     -9.65370568	      5.05752957	     41.12542025	     45.40541656	      0.00000000	      0.00000000
     46.74428571	     -3.29272583	     -5.58176019	      4.55528457	      0.78692984	      0.93090190	      0.52545528	      4.60609610	      5.53336160	    -20.35748665	     11.44188258	     11.44188258	     12.56274946	      7.18148168	     -5.42612982	     30.45845128	    -10.54323890	     -2.58465873	     17.15545224	     17.15545224	      9.31529090	     -5.77561895	     10.21322948	    -10.29101143	      9.53924665	      2.79096547	     29.48599642	    -14.39891415	     -6.19570988	     69.96336894	     44.98587839	      0.00000000	      0.00000000	    -14.02537594	     -9.34871345	      5.45330097	     40.52473667	     45.35784730	      0.00000000	      0.00000000
     46.75814286	     -3.31976023	     -5.65937765	      4.51153158	      0.78630003	      0.93056131	      0.52518768	      4.14691073	      5.62582034	    -20.42198636	     11.36313011	     11.36313011	     12.84119047	      7.56837610	     -5.31771759	     30.63244935	    -10.50002904	     -3.21062432	     15.84681731	     15.84681731	      8.96679781	     -4.54919887	     10.36126422	    -10.27560252	      9.56815339	      2.60478007	     30.53903926	    -13.87108167	     -5.81305149	     71.66160366	     44.92692338	      0.00000000	      0.00000000	    -14.67232951	     -9.05536145	      6.01801562	     39.77759200	     45.29259545	      0.00000000	      0.00000000
     46.77200000	     -3.38523657	     -5.75625520	      4.44540416	      0.78569269	      0.93014073	      0.52479910	      3.75206497	      5.72526175	    -20.42618255	     11.32161224	     11.32161224	     13.12625222	      7.83747048	     -5.20644074	     30.84649274	    -10.47275469	     -3.73391448	     14.90909049	     14.90909049	      8.47557648	     -3.83799433	     10.53613848	    -10.20490971	      9.60845604	      2.54443479	     31.49506727	    -13.47598912	     -5.49462216	     73.17837329	     44.87476531	      0.00000000	      0.00000000	    -15.23473227	     -8.76094799	      6.50682177	     39.21857689	     45.23440214	      0.00000000	      0.00000000
     46.78585714	     -3.41658897	     -5.84285891	      4.31117752	      0.78519902	      0.92967728	      0.52432413	      3.30240654	      5.80971555	    -20.36658754	     11.27478295	     11.27478295	     13.46390339	      8.17150982	     -5.00390389	     31.06501122	    -10.48932956	     -4.22570998	     14.48788939	     14.48788939	      7.93219628	     -3.56967374	     10.57202553	    -10.17461324	      9.63169441	      2.48045523	     32.40705821	    -13.15876744	     -5.06766650	     75.01936200	     44.81007631	      0.00000000	      0.00000000	    -15.80687122	     -8.49952575	      7.09988439	     38.64499897	     45.16433669	      0.00000000	      0.00000000
     46.79971429	     -3.49674431	     -5.92591105	      4.16098601	      0.78484431	      0.92906764	      0.52369864	      2.89482496	      5.86850719	    -20.33641792	     11.24481458	     11.24481458	     13.89967971	      8.53750617	     -4.49789820	     31.32819955	    -10.50280523	     -4.53281115	     14.46415506	     14.46415506	      7.20484448	     -3.79224308	     10.33990448	    -10.12148521	      9.65236071	      2.75303879	     32.89064809	    -13.34111450	     -4.40380433	     77.42531829	     44.72787658	      0.00000000	      0.00000000	    -16.19303462	     -8.34838395	      8.08864321	     38.13967105	     45.05842971	      0.00000000	      0.00000000
